# xmcd CD database file
#
# Track frame offsets:
#	150
#	16313
#	35038
#	50638
#	61363
#	77901
#
# Disc length: 1196 seconds
#
# Revision: 0
# Processed by: cddbd v1.5.2PL0 Copyright (c) Steve Scherf et al.
# Submitted via: CDex 1.51
#
DISCID=4c04aa06
DTITLE=Novak, Ilona - Ilona Novak - Jazztett
DYEAR=1998
DGENRE=Jazz
TTITLE0=Nightflight
TTITLE1=Baile de la Noche
TTITLE2=You've changed
TTITLE3=Them there eyes
TTITLE4=Slow Bossa
TTITLE5=They can't take that away from me
EXTD=YEAR: 1998
EXTT0=
EXTT1=
EXTT2=
EXTT3=
EXTT4=
EXTT5=
PLAYORDER=
